<svg version="1.2" xmlns="http://www.w3.org/2000/svg" viewBox="0.15 11.28 268.3 338.92">
	<title>autentificare-svg</title>
	<style>
		.s0 { fill: #ffffff } 
		.s1 { fill: #407bff } 
		.s2 { fill: #263238 } 
		.s3 { opacity: .3;fill: #ffffff } 
		.s4 { opacity: .1;fill: #ffffff } 
		.s5 { fill: #ffb573 } 
		.s6 { opacity: .2;fill: #000000 } 
		.s7 { fill: #f5f5f5 } 
		.s8 { fill: #ed893e } 
		.s9 { opacity: .4;fill: #407bff } 
		.s10 { opacity: .7;fill: #ffffff } 
		.s11 { opacity: .1;fill: #407bff } 
		.s12 { opacity: .5;fill: #407bff } 
	</style>
	<g id="Background Complete">
	</g>
	<g id="Shadow">
	</g>
	<g id="Cross icon">
		<g id="&lt;Group&gt;">
			<g id="&lt;Group&gt;">
				<circle id="&lt;Path&gt;" class="s0" cx="67.3" cy="248.5" r="31.7"/>
				<path id="&lt;Compound Path&gt;" fill-rule="evenodd" class="s1" d="m67.3 216.5c17.8 0 32.1 14.3 32.1 32.1 0 17.7-14.3 32-32.1 32-17.8 0-32.1-14.3-32.1-32 0-17.8 14.3-32.1 32.1-32.1zm-31.3 32.1c0 17.2 14 31.2 31.3 31.2 17.3 0 31.3-14 31.3-31.2 0-17.3-14-31.3-31.3-31.3-17.3 0-31.3 14-31.3 31.3z"/>
			</g>
			<g id="&lt;Group&gt;">
				<path id="&lt;Path&gt;" class="s1" d="m62.2 230.6h10.2v35.9h-10.2z"/>
				<path id="&lt;Path&gt;" class="s1" d="m49.3 243.4h36v10.2h-36z"/>
			</g>
		</g>
	</g>
	<g id="Character">
		<g id="&lt;Group&gt;">
			<g id="&lt;Group&gt;">
				<path id="&lt;Path&gt;" class="s2" d="m95 301.9l-16.9-249.9c-0.5-7.2 5.1-13.2 12.4-13.2h104.3c7.3 0 13.7 6 14.2 13.2l16.9 249.9c0.5 7.3-5.1 13.3-12.4 13.3h-104.4c-7.3 0-13.6-6-14.1-13.3z"/>
				<path id="&lt;Path&gt;" class="s2" d="m82.1 136.9l-3.2-47.8c-0.2-2.1 1.4-3.7 3.4-3.7h2.7c2 0 3.8 1.6 3.9 3.7l3.2 47.8c0.2 2-1.4 3.7-3.4 3.7h-2.7c-2 0-3.8-1.7-3.9-3.7z"/>
				<path id="&lt;Path&gt;" class="s1" d="m207.3 105.7l-1.2-17.3c-0.1-1.7 1.2-3 2.8-3h2.7c1.6 0 3.1 1.3 3.2 3l1.2 17.3c0.1 1.6-1.2 3-2.9 3h-2.6c-1.6 0-3.1-1.4-3.2-3z"/>
				<path id="&lt;Path&gt;" class="s1" d="m209.4 136.5l-1.2-17.3c-0.1-1.6 1.2-3 2.8-3h2.7c1.6 0 3.1 1.4 3.2 3l1.1 17.3c0.2 1.6-1.1 3-2.8 3h-2.6c-1.7 0-3.1-1.4-3.2-3z"/>
				<path id="&lt;Path&gt;" class="s1" d="m97.2 301.9l-16.9-249.9c-0.5-7.2 5.1-13.2 12.4-13.2h104.3c7.3 0 13.7 6 14.2 13.2l16.9 249.9c0.5 7.3-5.1 13.3-12.4 13.3h-104.4c-7.2 0-13.6-6-14.1-13.3z"/>
				<path id="&lt;Path&gt;" class="s3" d="m97.9 299.2l-16.5-244h129.1l16.5 244z"/>
				<path id="&lt;Path&gt;" class="s4" d="m147.1 299.2l-46-244h28.9l46 244z"/>
				<path id="&lt;Path&gt;" class="s4" d="m183.2 299.2l-46-244h14.6l46.1 244z"/>
				<path id="&lt;Path&gt;" class="s0" d="m159.6 46.6c0.1 0.8-0.6 1.6-1.5 1.6h-25.2c-0.9 0-1.7-0.8-1.7-1.6-0.1-0.9 0.6-1.7 1.5-1.7h25.2c0.9 0 1.6 0.8 1.7 1.7z"/>
			</g>
			<g id="&lt;Group&gt;">
				<path id="&lt;Path&gt;" class="s5" d="m166.3 318.9l8.8 0.8-3.2 20.4-8.8-0.9z"/>
				<path id="&lt;Path&gt;" class="s2" d="m174.8 337.1c5.1 5.5 4.2 7.2 11.2 9.3 1.5 0.5 0.7 3.8-2.9 3.8-5.1 0-7-2.6-11.8-4.7-4-1.7-7.2-1.9-10.5-2.9-0.8-0.3-1.3-1.2-0.9-2l3-7.3c0.1-0.3 0.4-0.5 0.8-0.4l9.2 2.9c0.8 0.2 1.4 0.7 1.9 1.3z"/>
				<path id="&lt;Path&gt;" class="s6" d="m175.1 319.7l-1.6 10.5-8.9-0.8 1.7-10.5z"/>
				<path id="&lt;Path&gt;" class="s0" d="m168.7 62.6c11.6-1.4 23.1-0.4 34.7 1.8 3.9 0.8 6.9 4 7.4 8 1.2 11 2.6 35.8-2.9 72.8q0 0-47.3-4c-0.1-6.7 4.7-37.3 0.7-69-0.6-4.8 2.7-9 7.4-9.6z"/>
				<path id="&lt;Path&gt;" class="s2" d="m196.3 72.1l-1.7 3.4c-0.2 0.3-0.5 0.5-0.9 0.5l-1.9 0.1q-0.5 0.1-0.9-0.2l-3.1-2.4 3.9-2.8z"/>
				<path id="&lt;Path&gt;" class="s2" d="m191.8 75.2q1.3-0.5 2.1-0.2c1.5 5.3 3.1 20.3 3.3 27q-4.5 13.1-6 14.5l-2.3-15.9q2.6-16.2 2.9-25.4z"/>
				<path id="&lt;Path&gt;" class="s5" d="m190.8 50.7c-1.4 5-1.8 10.4 5.4 12.3 2 2.8 3.2 8.2-4.5 7.7-7.7-0.5-12.2-4.7-15.6-8.3 4.6-4.2 3.7-16.1 2.6-22.6z"/>
				<path id="&lt;Path&gt;" class="s7" d="m174.1 61.9c0.6-0.3 1.2-0.5 1.7-0.6 0.3-0.1 0.6 0.1 0.7 0.3 0.8 1.3 3 6.9 15.2 9.1-2 1.2-4.7 4.8-5.8 6.6-3.7-1.9-13.1-7.6-12.2-14.9 0-0.2 0.2-0.4 0.4-0.5z"/>
				<path id="&lt;Path&gt;" class="s7" d="m196.2 63.3c-0.1-0.5 0.3-1 0.8-0.9 0.5 0.1 1 0.3 1.2 0.4q0.2 0 0.3 0.1c0.9 0.9 6 8.2 1.2 14.1-1-1.6-4.4-5.3-8-6.3 3.4-1.6 5.1-4.4 4.5-7.4z"/>
				<path id="&lt;Path&gt;" class="s6" d="m183.7 44.2l7.1 6.5c-0.3 1.2-0.6 2.4-0.7 3.5-2.8-0.4-6.5-3.6-6.7-6.5-0.1-1.4 0-2.8 0.3-3.5z"/>
				<path id="&lt;Path&gt;" class="s2" d="m193.2 20.1c6.1 2.4 6.6 7.5 5.9 13-0.6 5.5-6.5 1.9-7.9-1.6-1.3-3.4-6.5-14.7 2-11.4z"/>
				<path id="&lt;Path&gt;" class="s5" d="m188.3 17.3c9 2.6 11.9 15.5 11.1 23.5-0.9 9-11.1 14.2-18.6 8.2-5-4-5.5-9.2-7.3-17.9-1.7-8.7 6-16.3 14.8-13.8z"/>
				<path id="&lt;Path&gt;" class="s2" d="m171.8 21.6c-1.1-1-3.2-5.9 2.8-5.4 5.9 0.6 7.6-5.8 16.7-4.8 9 1.1 12.5 7.6 8.8 11.9-4 4.6-8.1-4.5-11.4-2.2-4.3 2.9-7.6 3.9-10.7 2.7 1.7 2-1 6 0.3 8.4 1.4 2.4 2.9 6.5-4.4 6.1-9.8-11.6-7.1-16.4-2.1-16.7z"/>
				<path id="&lt;Path&gt;" class="s2" d="m173 22.2q-3.8-1.8-3.8-6.4c-2 3.4-1.8 7.4 3.8 6.4z"/>
				<path id="&lt;Path&gt;" class="s2" d="m192 40.4c-2.7 0.5-4.5-1-4.6-1.1-0.1 0-0.1-0.2 0-0.3 0.1 0 0.2-0.1 0.3 0 0 0 2.1 1.7 5.1 0.8 0.1 0 0.2 0 0.2 0.2 0.1 0.1 0 0.2-0.1 0.2q-0.5 0.2-0.9 0.2z"/>
				<path id="&lt;Path&gt;" class="s5" d="m173.3 34.9c2.8-0.8 5.6 2.2 6.7 4.4 1.2 2.6 0.3 5.3-2.6 4.9-2-0.2-4.2-1.3-5.6-3.2-1.7-2.2-1.1-5.3 1.5-6.1z"/>
				<path id="&lt;Path&gt;" class="s2" d="m174.7 230.4q-0.4-26.1-3.7-88.3l36.8 3.1q-7.3 64.1-11.7 90.7-4.6 27.7-18.7 92.6l-15-1.3q5.4-76.6 12.3-96.8z"/>
				<path id="&lt;Path&gt;" class="s1" d="m178.3 328.9l-17.8-1.5 0.7-5.8 18.5 1.3z"/>
				<ellipse id="&lt;Path&gt;" class="s2" cx="187.5" cy="31.5" rx=".9" ry="1.3"/>
				<ellipse id="&lt;Path&gt;" class="s2" cx="195.7" cy="30.9" rx=".9" ry="1.3"/>
				<path id="&lt;Path&gt;" class="s8" d="m192.5 31.8q2.3 3.5 4.3 5.1-1 1.1-3.2 0.8z"/>
				<g id="&lt;Group&gt;">
					<path id="&lt;Path&gt;" class="s9" d="m200 31.2c0.2 1.1-1 2.1-2.6 2.3-1.5 0.2-3-0.7-3.2-1.8"/>
					<path id="&lt;Path&gt;" class="s9" d="m190.6 32.2c0.2 1.2-0.9 2.2-2.5 2.5-1.6 0.3-3.1-0.5-3.3-1.6"/>
					<path id="&lt;Path&gt;" class="s2" d="m185.8 34.6c-0.6-0.4-1-0.8-1.1-1.3l-11.9 1.5-0.1-0.5 12.4-1.6v0.3c0.1 0.4 0.4 0.8 0.9 1.1 0.6 0.3 1.2 0.4 2 0.3 0.7 0 1.3-0.3 1.8-0.7 0.4-0.5 0.6-0.9 0.5-1.4 0-0.6 1.1-0.8 2.1-1 0.9-0.1 2.1-0.1 2.2 0.4 0.1 1.1 1.4 1.7 2.8 1.5 0.7-0.1 1.3-0.3 1.8-0.8 0.4-0.4 0.6-0.9 0.6-1.3l0.4-0.1c0.1 0.6-0.1 1.3-0.7 1.8-0.5 0.5-1.2 0.8-2 0.9-1.7 0.2-3.3-0.6-3.4-1.8-0.1-0.1-0.7-0.2-1.7-0.1-1 0.2-1.5 0.4-1.6 0.4 0.1 0.7-0.2 1.3-0.7 1.8-0.5 0.5-1.3 0.8-2.1 0.9q-0.3 0.1-0.5 0.1c-0.6 0-1.2-0.2-1.7-0.4z"/>
				</g>
				<path id="&lt;Path&gt;" class="s2" d="m183.5 28.5q-0.1 0-0.2-0.1c-0.2-0.1-0.2-0.3-0.1-0.5 1.1-2 3-2.1 3.1-2.1 0.3-0.1 0.5 0.1 0.5 0.4 0 0.2-0.2 0.4-0.4 0.4-0.1 0-1.6 0.1-2.5 1.7q-0.1 0.2-0.4 0.2z"/>
				<path id="&lt;Path&gt;" class="s2" d="m197.5 27.4q-0.2 0-0.4-0.2c-1.2-1.4-2.7-1.3-2.7-1.3-0.3 0-0.5-0.2-0.5-0.4 0-0.2 0.1-0.4 0.4-0.5 0 0 2-0.1 3.4 1.7q0.3 0.3 0 0.6-0.1 0.1-0.2 0.1z"/>
				<path id="&lt;Path&gt;" class="s2" d="m144 226.2c7.6-39.4 9.3-70.1 16.6-85l35.7 4q-21.3 58.6-31.7 83.6-10.8 26-32.1 70.4h-17.8q16.7-55.1 29.3-73z"/>
				<path id="&lt;Path&gt;" class="s5" d="m257.1 77.3l3.9-2.4c1.3-0.9 3-0.7 4 0.4l2.6 2.8c1.2 1.3 1.1 3.2-0.2 4.4l-1.9 1.6c-1.6 1.4-3.5 2.4-5.6 3l-5.6 1.6-3.7-3.9q-1.1-4.2 6.5-7.5z"/>
				<g id="&lt;Group&gt;">
					<g id="&lt;Group&gt;">
						<path id="&lt;Path&gt;" class="s1" d="m213.7 70.4c1 3.1 2.2 6.3 3.4 9.4q1.9 4.6 4 9.1c1.4 3 2.9 5.9 4.5 8.5 0.8 1.4 1.7 2.6 2.5 3.8 0.9 1.1 1.8 2.1 2.5 2.7 0.3 0.3 0.6 0.5 0.7 0.5-0.1 0-0.1 0-0.1 0q0 0-0.1 0c0 0-0.3-0.1-0.4-0.1-0.6-0.1-1 0-1.1 0.1-0.3 0.1 0.1-0.1 0.5-0.3 0.4-0.2 0.9-0.6 1.4-1 2.1-1.8 4.3-4.2 6.4-6.6 4.1-5 8.1-10.6 11.5-16.2l11.1 7.2c-2.1 3-4.1 5.8-6.2 8.7q-3.2 4.3-6.7 8.4c-2.3 2.8-4.7 5.6-7.9 8.3-0.8 0.7-1.7 1.4-2.8 2.1-1.1 0.6-2.2 1.3-4.1 1.9-1 0.2-2.2 0.4-3.7 0.2-0.3 0-0.8-0.1-1.1-0.2l-0.7-0.2c-0.4-0.1-0.8-0.3-1.2-0.4-1.6-0.7-2.7-1.5-3.7-2.3-2-1.6-3.4-3.2-4.6-4.8-1.3-1.6-2.4-3.1-3.4-4.7-2-3.2-3.8-6.4-5.5-9.6-1.6-3.2-3.1-6.4-4.6-9.6-1.5-3.3-2.9-6.4-4.3-9.9z"/>
					</g>
					<g id="&lt;Group&gt;" style="opacity: .6">
						<path id="&lt;Path&gt;" class="s0" d="m213.7 70.4c1 3.1 2.2 6.3 3.4 9.4q1.9 4.6 4 9.1c1.4 3 2.9 5.9 4.5 8.5 0.8 1.4 1.7 2.6 2.5 3.8 0.9 1.1 1.8 2.1 2.5 2.7 0.3 0.3 0.6 0.5 0.7 0.5-0.1 0-0.1 0-0.1 0q0 0-0.1 0c0 0-0.3-0.1-0.4-0.1-0.6-0.1-1 0-1.1 0.1-0.3 0.1 0.1-0.1 0.5-0.3 0.4-0.2 0.9-0.6 1.4-1 2.1-1.8 4.3-4.2 6.4-6.6 4.1-5 8.1-10.6 11.5-16.2l11.1 7.2c-2.1 3-4.1 5.8-6.2 8.7q-3.2 4.3-6.7 8.4c-2.3 2.8-4.7 5.6-7.9 8.3-0.8 0.7-1.7 1.4-2.8 2.1-1.1 0.6-2.2 1.3-4.1 1.9-1 0.2-2.2 0.4-3.7 0.2-0.3 0-0.8-0.1-1.1-0.2l-0.7-0.2c-0.4-0.1-0.8-0.3-1.2-0.4-1.6-0.7-2.7-1.5-3.7-2.3-2-1.6-3.4-3.2-4.6-4.8-1.3-1.6-2.4-3.1-3.4-4.7-2-3.2-3.8-6.4-5.5-9.6-1.6-3.2-3.1-6.4-4.6-9.6-1.5-3.3-2.9-6.4-4.3-9.9z"/>
					</g>
				</g>
				<g id="&lt;Group&gt;">
					<path id="&lt;Path&gt;" class="s1" d="m173.8 60.1c3.8 6.9 17.1 33.7 18.7 50.1q5.9-14.9 4.7-48.2c2.9 0.1 8.2 1.4 12.2 3 2.6 1 4.4 3.5 4.7 6.3 0.6 8.1 1.4 27.4-1.7 51.5q-4.1 32.3-8 82.5-33.1-1.4-58.5-6.8c3.1-24.6 13.7-66 13.8-77.1 0.1-14.3-0.2-42.2-0.7-53.8-0.1-3.4 2.2-6.4 5.6-7.1q4.5-0.9 9.2-0.4z"/>
					<path id="&lt;Path&gt;" class="s10" d="m173.8 60.1c3.8 6.9 17.1 33.7 18.7 50.1q5.9-14.9 4.7-48.2c2.9 0.1 8.2 1.4 12.2 3 2.6 1 4.4 3.5 4.7 6.3 0.6 8.1 1.4 27.4-1.7 51.5q-4.1 32.3-8 82.5-33.1-1.4-58.5-6.8c3.1-24.6 13.7-66 13.8-77.1 0.1-14.3-0.2-42.2-0.7-53.8-0.1-3.3 2-6.3 5.2-7q4.7-1 9.6-0.5z"/>
				</g>
				<path id="&lt;Path&gt;" class="s0" d="m181.1 199.8c5.7-31.6 10.3-78 10.7-83.6h0.5c-0.4 5.6-5 52.1-10.7 83.7z"/>
				<g id="&lt;Group&gt;">
					<path id="&lt;Path&gt;" class="s0" d="m182.8 141.4l10.2-47.3c0.2-1.2 1.4-2.2 2.6-2.2h30.5c1.2 0 1.9 1 1.7 2.2l-10.2 47.3c-0.3 1.2-1.5 2.2-2.7 2.2h-30.4c-1.2 0-2-1-1.7-2.2z"/>
					<path id="&lt;Path&gt;" class="s1" d="m183.7 141.8l10.4-48.1c0.2-1.3 1.4-2.2 2.6-2.2h31c1.2 0 2 0.9 1.8 2.2l-10.4 48.1c-0.3 1.2-1.5 2.2-2.7 2.2h-31c-1.2 0-2-1-1.7-2.2z"/>
				</g>
				<path id="&lt;Path&gt;" class="s5" d="m181.9 116.8l7.7-0.3q1.4 0 2.7 0.5l4 1.6c1.6 0.7 2.3 2.5 1.6 4.1l-1.6 3.4c-0.6 1.4-2.2 2.1-3.7 1.8l-4.4-1.1q-8.3-0.7-8.6-5z"/>
				<g id="&lt;Group&gt;">
					<g id="&lt;Group&gt;">
						<path id="&lt;Path&gt;" class="s1" d="m172.5 72.8c-1.9 2.4-3.7 5.1-5.5 7.7q-2.6 3.9-4.9 8c-1.6 2.6-3 5.4-4.2 8-0.6 1.4-1.1 2.7-1.4 3.9-0.4 1.2-0.6 2.3-0.6 2.8q0 0.1 0 0 0-0.2 0-0.5-0.1-0.2-0.1-0.3c-0.1-0.2-0.1-0.2-0.1-0.3-0.2-0.3-0.3-0.4-0.2-0.3 0 0 0.3 0.3 0.7 0.7 0.8 0.6 1.9 1.4 3.1 2.1 2.5 1.4 5.3 2.7 8.2 3.9q4.3 1.8 8.8 3.4c3 1 6.1 2 9.1 2.8l-3.9 12.6c-3.2-1.1-6.3-2.2-9.5-3.4q-4.7-1.7-9.5-3.7c-3.1-1.3-6.3-2.7-9.5-4.5-1.6-0.9-3.2-1.9-5-3.3-0.8-0.8-1.8-1.5-2.7-2.8q-0.7-0.9-1.5-2.4c-0.1-0.3-0.2-0.5-0.3-0.8q-0.2-0.5-0.3-1-0.1-0.5-0.1-1.1-0.1-0.1-0.1-0.2v-0.1-0.2c-0.1-2.9 0.4-5 0.9-6.9 0.5-2 1.2-3.7 1.8-5.4 1.4-3.4 2.9-6.5 4.5-9.5 1.6-3.1 3.3-6 5-8.9 1.7-3 3.5-5.8 5.4-8.7z"/>
					</g>
					<g id="&lt;Group&gt;" style="opacity: .7">
						<path id="&lt;Path&gt;" class="s0" d="m172.5 72.8c-1.9 2.4-3.7 5.1-5.5 7.7q-2.6 3.9-4.9 8c-1.6 2.6-3 5.4-4.2 8-0.6 1.4-1.1 2.7-1.4 3.9-0.4 1.2-0.6 2.3-0.6 2.8q0 0.1 0 0 0-0.2 0-0.5-0.1-0.2-0.1-0.3c-0.1-0.2-0.1-0.2-0.1-0.3-0.2-0.3-0.3-0.4-0.2-0.3 0 0 0.3 0.3 0.7 0.7 0.8 0.6 1.9 1.4 3.1 2.1 2.5 1.4 5.3 2.7 8.2 3.9q4.3 1.8 8.8 3.4c3 1 6.1 2 9.1 2.8l-3.9 12.6c-3.2-1.1-6.3-2.2-9.5-3.4q-4.7-1.7-9.5-3.7c-3.1-1.3-6.3-2.7-9.5-4.5-1.6-0.9-3.2-1.9-5-3.3-0.8-0.8-1.8-1.5-2.7-2.8q-0.7-0.9-1.5-2.4c-0.1-0.3-0.2-0.5-0.3-0.8q-0.2-0.5-0.3-1-0.1-0.5-0.1-1.1-0.1-0.1-0.1-0.2v-0.1-0.2c-0.1-2.9 0.4-5 0.9-6.9 0.5-2 1.2-3.7 1.8-5.4 1.4-3.4 2.9-6.5 4.5-9.5 1.6-3.1 3.3-6 5-8.9 1.7-3 3.5-5.8 5.4-8.7z"/>
					</g>
				</g>
				<path id="&lt;Path&gt;" class="s2" d="m170.5 99l-1.6-1c-3.2-2.1-4.9-5.9-4.1-9.7l3.1-15.9c0.6-2.9 2.9-4.8 5.8-4.9 3-0.1 5.4 1.6 6.2 4.4l4.5 15.6c1 3.7-0.3 7.7-3.4 10l-1.4 1.1c-0.2 0.2-0.5 0.1-0.6 0-0.1-0.2-0.1-0.5 0.1-0.6l1.5-1.1c2.8-2.2 4-5.8 3-9.2l-4.5-15.6c-0.8-3-3.4-3.9-5.4-3.9-1.9 0.1-4.4 1.3-5 4.4l-3.1 15.9c-0.7 3.5 0.8 6.9 3.8 8.9l1.5 0.9c0.2 0.2 0.3 0.4 0.1 0.6q-0.1 0.2-0.3 0.2-0.1 0-0.2-0.1z"/>
				<path id="&lt;Path&gt;" class="s2" d="m167.9 72.5c0-0.2 0.2-0.4 0.4-0.4l11.2-0.5c0.2 0.1 0.4 0.2 0.4 0.4 0 0.2-0.1 0.4-0.4 0.4l-11.2 0.5c-0.2 0-0.4-0.2-0.4-0.4z"/>
				<path id="&lt;Path&gt;" class="s2" d="m173.7 68.2c-0.2 0-0.3-0.1-0.3-0.4 0-0.5 0.2-5.8 3-6.9 0.2-0.1 0.4 0 0.5 0.2 0.1 0.2 0 0.4-0.2 0.5-1.9 0.8-2.5 4.3-2.5 6.3 0 0.2-0.2 0.3-0.4 0.3q0 0-0.1 0z"/>
				<path id="&lt;Path&gt;" class="s2" d="m207.7 81.5c-1.3-6.4-6.6-16.5-11.2-19.4-0.2-0.2-0.3-0.4-0.1-0.6 0.1-0.2 0.3-0.2 0.5-0.1 4.8 3 10.3 13.4 11.6 20 0 0.2-0.1 0.4-0.3 0.4q-0.1 0-0.1 0c-0.2 0-0.3-0.1-0.4-0.3z"/>
				<path id="&lt;Path&gt;" class="s0" d="m205.6 79.2c1-0.4 2.4 0.6 3 2.2 0.7 1.6 0.3 3.2-0.7 3.6-1.1 0.4-2.4-0.5-3.1-2.1-0.6-1.6-0.3-3.2 0.8-3.7z"/>
				<ellipse id="&lt;Path&gt;" class="s0" cx="179.3" cy="98.3" rx=".9" ry="1.4"/>
				<ellipse id="&lt;Path&gt;" class="s0" cx="170.7" cy="98.7" rx=".9" ry="1.4"/>
			</g>
		</g>
	</g>
	<g id="Chat">
		<g id="&lt;Group&gt;">
			<g id="&lt;Group&gt;">
				<path id="&lt;Path&gt;" class="s1" d="m4.6 72.4c3.1-3.4 7.4-5.2 12.1-5.2v1c-4.4 0-8.4 1.7-11.4 4.9-2.9 3.1-4.4 7.3-4.1 11.7l-1 0.1c-0.3-4.7 1.3-9.2 4.4-12.5z"/>
				<path id="&lt;Path&gt;" class="s1" d="m0.5 89.4h1l0.6 8.2-1 0.1z"/>
				<path id="&lt;Path&gt;" class="s1" d="m16.7 70.7h69c7.6 0 14.3 6.3 14.9 13.9l0.6 9.3c0.5 7.7-5.3 13.9-13 13.9h-69l-13.3 8.3-2.2-31.5c-0.5-7.6 5.4-13.9 13-13.9z"/>
				<path id="&lt;Path&gt;" class="s0" d="m20.2 84h63.9v2.3h-63.9z"/>
				<path id="&lt;Path&gt;" class="s0" d="m20.8 92.2h47.4v2.3h-47.4z"/>
			</g>
			<g id="&lt;Group&gt;">
				<g id="&lt;Group&gt;">
					<path id="&lt;Path&gt;" class="s0" d="m135.7 134.6l2.2 32.2-14.8-8.4h-70.5c-7.9 0-14.7-6.4-15.3-14.3l-0.6-9.5c-0.5-7.8 5.5-14.2 13.3-14.2h70.5c7.9 0 14.7 6.4 15.2 14.2z"/>
					<path id="&lt;Path&gt;" class="s11" d="m135.7 134.6l2.2 32.2-14.8-8.4h-70.5c-7.9 0-14.7-6.4-15.3-14.3l-0.6-9.5c-0.5-7.8 5.5-14.2 13.3-14.2h70.5c7.9 0 14.7 6.4 15.2 14.2z"/>
				</g>
				<path id="&lt;Path&gt;" class="s12" d="m53.6 134h65.3v2.4h-65.3z"/>
				<path id="&lt;Path&gt;" class="s12" d="m93.7 142.4h25.8v2.4h-25.8z"/>
				<path id="&lt;Path&gt;" class="s12" d="m70.8 142.4h16.5v2.4h-16.5z"/>
			</g>
		</g>
	</g>
</svg>