<svg version="1.2" xmlns="http://www.w3.org/2000/svg" viewBox="0.8 0.18 56.2 58.12">
	<title>autentificare-svg</title>
	<style>
		.s0 { fill: #407bff } 
		.s1 { fill: #ffffff } 
	</style>
	<g id="Pulse icon">
		<g id="&lt;Group&gt;">
			<path id="&lt;Path&gt;" class="s0" d="m9.1 9.1l-0.7-0.8c4.7-4.4 10.5-7.2 16.8-8.1l0.2 1c-6.1 0.9-11.8 3.6-16.3 7.9z"/>
			<path id="&lt;Path&gt;" class="s0" d="m1.7 20l-0.9-0.4c1-2.5 2.3-4.9 3.9-7.1l0.8 0.6c-1.5 2.1-2.8 4.4-3.8 6.9z"/>
			<circle id="&lt;Path&gt;" class="s0" cx="29.6" cy="30.9" r="27.4"/>
			<path id="&lt;Path&gt;" class="s1" d="m45.5 34.8l-12.9 13c-1.7 1.6-4.3 1.6-6 0l-12.9-13c-4.5-4.4-4.8-11.7-0.4-16.3 4.4-4.6 11.8-4.7 16.3-0.1 4.5-4.6 11.9-4.5 16.4 0.1 4.3 4.6 4 11.9-0.5 16.3z"/>
			<path id="&lt;Path&gt;" class="s0" d="m29.6 42.9c-0.4-0.1-0.8-0.3-0.9-0.7l-5.8-16.9-2.4 7c-0.2 0.4-0.6 0.7-1 0.7h-9.7c-0.5 0-1-0.4-1-1 0-0.5 0.5-1 1-1h9l3.1-9.2c0.2-0.4 0.5-0.6 1-0.6 0.4 0 0.8 0.2 0.9 0.6l5.9 17.3 5.7-13.5q0.3-0.6 0.9-0.6c0.4 0 0.7 0.2 0.9 0.5l3.1 5.5h9.1c0.6 0 1 0.5 1 1 0 0.6-0.4 1-1 1h-9.7c-0.3 0-0.7-0.2-0.9-0.5l-2.3-4.2-6 14c-0.1 0.3-0.5 0.6-0.9 0.6z"/>
		</g>
	</g>
</svg>